
int zelda1[] = {

  // Zelda's Lullaby - The Legend of Zelda Ocarina of Time.
  // Score available at https://musescore.com/user/12754451/scores/2762776

  NOTE_E4, 2, NOTE_G4, 4,
  NOTE_D4, 2, NOTE_C4, 8, NOTE_D4, 8,
  NOTE_E4, 2, NOTE_G4, 4,
  NOTE_D4, -2,
  NOTE_E4, 2, NOTE_G4, 4,
  NOTE_D5, 2, NOTE_C5, 4,
  NOTE_G4, 2, NOTE_F4, 8, NOTE_E4, 8,
  NOTE_D4, -2,
  NOTE_E4, 2, NOTE_G4, 4,
  NOTE_D4, 2, NOTE_C4, 8, NOTE_D4, 8,
  NOTE_E4, 2, NOTE_G4, 4,
  NOTE_D4, -2,
  NOTE_E4, 2, NOTE_G4, 4,
//
//  NOTE_D5, 2, NOTE_C5, 4,
//  NOTE_G4, 2, NOTE_F4, 8, NOTE_E4, 8,
//  NOTE_F4, 8, NOTE_E4, 8, NOTE_C4, 2,
//  NOTE_F4, 2, NOTE_E4, 8, NOTE_D4, 8,
//  NOTE_E4, 8, NOTE_D4, 8, NOTE_A3, 2,
//  NOTE_G4, 2, NOTE_F4, 8, NOTE_E4, 8,
//  //  NOTE_F4,8, NOTE_E4,8, NOTE_C4,4, NOTE_F4,4,
//  NOTE_C5, -2,

};

int zelda2[] = {

  //Based on the arrangement at https://www.flutetunes.com/tunes.php?id=169

  NOTE_AS4, -2,  NOTE_F4, 8,  NOTE_F4, 8,  NOTE_AS4, 8, //1
  NOTE_GS4, 16,  NOTE_FS4, 16,  NOTE_GS4, -2,
  NOTE_AS4, -2,  NOTE_FS4, 8,  NOTE_FS4, 8,  NOTE_AS4, 8,
  NOTE_A4, 16,  NOTE_G4, 16,  NOTE_A4, -2,
  REST, 1,

//  NOTE_AS4, 4,  NOTE_F4, -4,  NOTE_AS4, 8,  NOTE_AS4, 16,  NOTE_C5, 16, NOTE_D5, 16, NOTE_DS5, 16, //7
//  NOTE_F5, 2,  NOTE_F5, 8,  NOTE_F5, 8,  NOTE_F5, 8,  NOTE_FS5, 16, NOTE_GS5, 16,
//  NOTE_AS5, -2,  NOTE_AS5, 8,  NOTE_AS5, 8,  NOTE_GS5, 8,  NOTE_FS5, 16,
//  NOTE_GS5, -8,  NOTE_FS5, 16,  NOTE_F5, 2,  NOTE_F5, 4,
//
//  NOTE_DS5, -8, NOTE_F5, 16, NOTE_FS5, 2, NOTE_F5, 8, NOTE_DS5, 8, //11
//  NOTE_CS5, -8, NOTE_DS5, 16, NOTE_F5, 2, NOTE_DS5, 8, NOTE_CS5, 8,
//  NOTE_C5, -8, NOTE_D5, 16, NOTE_E5, 2, NOTE_G5, 8,
//  NOTE_F5, 16, NOTE_F4, 16, NOTE_F4, 16, NOTE_F4, 16, NOTE_F4, 16, NOTE_F4, 16, NOTE_F4, 16, NOTE_F4, 16, NOTE_F4, 8, NOTE_F4, 16, NOTE_F4, 8,
//
//  NOTE_AS4, 4,  NOTE_F4, -4,  NOTE_AS4, 8,  NOTE_AS4, 16,  NOTE_C5, 16, NOTE_D5, 16, NOTE_DS5, 16, //15
//  NOTE_F5, 2,  NOTE_F5, 8,  NOTE_F5, 8,  NOTE_F5, 8,  NOTE_FS5, 16, NOTE_GS5, 16,
//  NOTE_AS5, -2, NOTE_CS6, 4,
//  NOTE_C6, 4, NOTE_A5, 2, NOTE_F5, 4,
//  NOTE_FS5, -2, NOTE_AS5, 4,
//  NOTE_A5, 4, NOTE_F5, 2, NOTE_F5, 4,
//
//  NOTE_FS5, -2, NOTE_AS5, 4,
//  NOTE_A5, 4, NOTE_F5, 2, NOTE_D5, 4,
//  NOTE_DS5, -2, NOTE_FS5, 4,
//  NOTE_F5, 4, NOTE_CS5, 2, NOTE_AS4, 4,
//  NOTE_C5, -8, NOTE_D5, 16, NOTE_E5, 2, NOTE_G5, 8,
//  NOTE_F5, 16, NOTE_F4, 16, NOTE_F4, 16, NOTE_F4, 16, NOTE_F4, 16, NOTE_F4, 16, NOTE_F4, 16, NOTE_F4, 16, NOTE_F4, 8, NOTE_F4, 16, NOTE_F4, 8

};


int miiChannel[] = {

  // Mii Channel theme
  // Score available at https://musescore.com/user/16403456/scores/4984153
  // Uploaded by Catalina Andrade

  NOTE_FS4, 8, REST, 8, NOTE_A4, 8, NOTE_CS5, 8, REST, 8, NOTE_A4, 8, REST, 8, NOTE_FS4, 8, //1
  NOTE_D4, 8, NOTE_D4, 8, NOTE_D4, 8, REST, 8, REST, 4, REST, 8, NOTE_CS4, 8,
  NOTE_D4, 8, NOTE_FS4, 8, NOTE_A4, 8, NOTE_CS5, 8, REST, 8, NOTE_A4, 8, REST, 8, NOTE_F4, 8,
  NOTE_E5, -4, NOTE_DS5, 8, NOTE_D5, 8, REST, 8, REST, 4,

//  NOTE_GS4, 8, REST, 8, NOTE_CS5, 8, NOTE_FS4, 8, REST, 8, NOTE_CS5, 8, REST, 8, NOTE_GS4, 8, //5
//  REST, 8, NOTE_CS5, 8, NOTE_G4, 8, NOTE_FS4, 8, REST, 8, NOTE_E4, 8, REST, 8,
//  NOTE_E4, 8, NOTE_E4, 8, NOTE_E4, 8, REST, 8, REST, 4, NOTE_E4, 8, NOTE_E4, 8,
//  NOTE_E4, 8, REST, 8, REST, 4, NOTE_DS4, 8, NOTE_D4, 8,
//
//  NOTE_CS4, 8, REST, 8, NOTE_A4, 8, NOTE_CS5, 8, REST, 8, NOTE_A4, 8, REST, 8, NOTE_FS4, 8, //9
//  NOTE_D4, 8, NOTE_D4, 8, NOTE_D4, 8, REST, 8, NOTE_E5, 8, NOTE_E5, 8, NOTE_E5, 8, REST, 8,
//  REST, 8, NOTE_FS4, 8, NOTE_A4, 8, NOTE_CS5, 8, REST, 8, NOTE_A4, 8, REST, 8, NOTE_F4, 8,
//  NOTE_E5, 2, NOTE_D5, 8, REST, 8, REST, 4,
//
//  NOTE_B4, 8, NOTE_G4, 8, NOTE_D4, 8, NOTE_CS4, 4, NOTE_B4, 8, NOTE_G4, 8, NOTE_CS4, 8, //13
//  NOTE_A4, 8, NOTE_FS4, 8, NOTE_C4, 8, NOTE_B3, 4, NOTE_F4, 8, NOTE_D4, 8, NOTE_B3, 8,
//  NOTE_E4, 8, NOTE_E4, 8, NOTE_E4, 8, REST, 4, REST, 4, NOTE_AS4, 4,
//  NOTE_CS5, 8, NOTE_D5, 8, NOTE_FS5, 8, NOTE_A5, 8, REST, 8, REST, 4,
//
//  REST, 2, NOTE_A3, 4, NOTE_AS3, 4, //17
//  NOTE_A3, -4, NOTE_A3, 8, NOTE_A3, 2,
//  REST, 4, NOTE_A3, 8, NOTE_AS3, 8, NOTE_A3, 8, NOTE_F4, 4, NOTE_C4, 8,
//  NOTE_A3, -4, NOTE_A3, 8, NOTE_A3, 2,
//
//  REST, 2, NOTE_B3, 4, NOTE_C4, 4, //21
//  NOTE_CS4, -4, NOTE_C4, 8, NOTE_CS4, 2,
//  REST, 4, NOTE_CS4, 8, NOTE_C4, 8, NOTE_CS4, 8, NOTE_GS4, 4, NOTE_DS4, 8,
//  NOTE_CS4, -4, NOTE_DS4, 8, NOTE_B3, 1,
//
//  NOTE_E4, 4, NOTE_E4, 4, NOTE_E4, 4, REST, 8, //25
};

int takeOnMe[] = {

  // Take on me, by A-ha
  // Score available at https://musescore.com/user/190926/scores/181370
  // Arranged by Edward Truong

  NOTE_FS5, 8, NOTE_FS5, 8, NOTE_D5, 8, NOTE_B4, 8, REST, 8, NOTE_B4, 8, REST, 8, NOTE_E5, 8,
  REST, 8, NOTE_E5, 8, REST, 8, NOTE_E5, 8, NOTE_GS5, 8, NOTE_GS5, 8, NOTE_A5, 8, NOTE_B5, 8,
  NOTE_A5, 8, NOTE_A5, 8, NOTE_A5, 8, NOTE_E5, 8, REST, 8, NOTE_D5, 8, REST, 8, NOTE_FS5, 8,
  REST, 8, NOTE_FS5, 8, REST, 8, NOTE_FS5, 8, NOTE_E5, 8, NOTE_E5, 8, NOTE_FS5, 8, NOTE_E5, 8,
  NOTE_FS5, 8, NOTE_FS5, 8, NOTE_D5, 8, NOTE_B4, 8, REST, 8, NOTE_B4, 8, REST, 8, NOTE_E5, 8,
//
//  REST, 8, NOTE_E5, 8, REST, 8, NOTE_E5, 8, NOTE_GS5, 8, NOTE_GS5, 8, NOTE_A5, 8, NOTE_B5, 8,
//  NOTE_A5, 8, NOTE_A5, 8, NOTE_A5, 8, NOTE_E5, 8, REST, 8, NOTE_D5, 8, REST, 8, NOTE_FS5, 8,
//  REST, 8, NOTE_FS5, 8, REST, 8, NOTE_FS5, 8, NOTE_E5, 8, NOTE_E5, 8, NOTE_FS5, 8, NOTE_E5, 8,
//  NOTE_FS5, 8, NOTE_FS5, 8, NOTE_D5, 8, NOTE_B4, 8, REST, 8, NOTE_B4, 8, REST, 8, NOTE_E5, 8,
//  REST, 8, NOTE_E5, 8, REST, 8, NOTE_E5, 8, NOTE_GS5, 8, NOTE_GS5, 8, NOTE_A5, 8, NOTE_B5, 8,
//
//  NOTE_A5, 8, NOTE_A5, 8, NOTE_A5, 8, NOTE_E5, 8, REST, 8, NOTE_D5, 8, REST, 8, NOTE_FS5, 8,
//  REST, 8, NOTE_FS5, 8, REST, 8, NOTE_FS5, 8, NOTE_E5, 8, NOTE_E5, 8, NOTE_FS5, 8, NOTE_E5, 8,

};

int jigglypuff[] = {

  // Jigglypuff's Song
  // Score available at https://musescore.com/user/28109683/scores/5044153

  NOTE_D5, -4, NOTE_A5, 8, NOTE_FS5, 8, NOTE_D5, 8,
  NOTE_E5, -4, NOTE_FS5, 8, NOTE_G5, 4,
  NOTE_FS5, -4, NOTE_E5, 8, NOTE_FS5, 4,
  NOTE_D5, -2,
  NOTE_D5, -4, NOTE_A5, 8, NOTE_FS5, 8, NOTE_D5, 8,
  NOTE_E5, -4, NOTE_FS5, 8, NOTE_G5, 4,
  NOTE_FS5, -1,
  NOTE_D5, -4, NOTE_A5, 8, NOTE_FS5, 8, NOTE_D5, 8,
  NOTE_E5, -4, NOTE_FS5, 8, NOTE_G5, 4,

  NOTE_FS5, -4, NOTE_E5, 8, NOTE_FS5, 4,
  NOTE_D5, -2,
  NOTE_D5, -4, NOTE_A5, 8, NOTE_FS5, 8, NOTE_D5, 8,
  NOTE_E5, -4, NOTE_FS5, 8, NOTE_G5, 4,
  NOTE_FS5, -1,

};

extern const int* melodies[] = {zelda1, zelda2, miiChannel, takeOnMe, jigglypuff};
extern const int sizes[] = {sizeof(zelda1), sizeof(zelda2), sizeof(miiChannel), sizeof(takeOnMe), sizeof(jigglypuff)};
